<?xml version="1.0" encoding="UTF-8" standalone="no"?>
<!DOCTYPE svg PUBLIC "-//W3C//DTD SVG 1.1//EN" "http://www.w3.org/Graphics/SVG/1.1/DTD/svg11.dtd">
<!-- Created with Vectornator (http://vectornator.io/) -->
<svg height="396.0px" stroke-miterlimit="10" style="fill-rule:nonzero;clip-rule:evenodd;stroke-linecap:round;stroke-linejoin:round;" version="1.1" viewBox="0 0 1536 396" width="1536.0px" xml:space="preserve" xmlns="http://www.w3.org/2000/svg" xmlns:vectornator="http://vectornator.io" xmlns:xlink="http://www.w3.org/1999/xlink">
<defs/>
<g id="Layer-1" vectornator:layerName="Layer 1">
<g fill="#18243b" opacity="1" stroke="none" vectornator:layerName="Text 2">
<path d="M469.709 134.136C485.545 134.136 500.895 137.852 515.758 145.283C530.622 152.715 541.943 162.335 549.722 174.142C557.223 185.394 562.224 198.521 564.724 213.523C566.947 223.803 568.058 240.194 568.058 262.698L404.491 262.698C405.185 285.34 410.533 303.503 420.535 317.185C430.537 330.868 446.025 337.709 467.001 337.709C486.587 337.709 502.215 331.25 513.883 318.331C520.551 310.83 525.274 302.148 528.052 292.286L564.933 292.286C563.96 300.481 560.731 309.615 555.244 319.686C549.757 329.757 543.61 337.987 536.803 344.377C525.413 355.49 511.313 362.991 494.505 366.881C485.476 369.103 475.266 370.214 463.875 370.214C436.093 370.214 412.548 360.109 393.239 339.897C373.931 319.686 364.276 291.383 364.276 254.988C364.276 219.149 374 190.047 393.447 167.683C412.895 145.318 438.316 134.136 469.709 134.136ZM529.51 232.901C527.982 216.649 524.44 203.661 518.884 193.937C508.604 175.878 491.449 166.849 467.417 166.849C450.192 166.849 435.746 173.066 424.077 185.498C412.409 197.931 406.227 213.732 405.533 232.901L529.51 232.901Z"/>
<path d="M621.608 76.8352L659.531 76.8352L659.531 139.137L695.161 139.137L695.161 169.766L659.531 169.766L659.531 315.414C659.531 323.193 662.17 328.402 667.449 331.042C670.366 332.57 675.228 333.334 682.034 333.334C683.84 333.334 685.785 333.299 687.869 333.229C689.952 333.16 692.383 332.986 695.161 332.709L695.161 362.297C690.855 363.547 686.375 364.45 681.722 365.005C677.068 365.561 672.033 365.839 666.615 365.839C649.112 365.839 637.236 361.359 630.985 352.399C624.734 343.439 621.608 331.806 621.608 317.498L621.608 169.766L591.395 169.766L591.395 139.137L621.608 139.137L621.608 76.8352Z"/>
<path d="M761.422 302.912C761.422 313.747 765.381 322.29 773.299 328.541C781.216 334.792 790.593 337.918 801.428 337.918C814.624 337.918 827.404 334.862 839.767 328.75C860.604 318.609 871.022 302.009 871.022 278.95L871.022 248.737C866.438 251.654 860.534 254.085 853.311 256.03C846.088 257.975 839.003 259.364 832.058 260.197L809.346 263.114C795.733 264.92 785.523 267.768 778.716 271.657C767.187 278.186 761.422 288.604 761.422 302.912ZM852.269 227.067C860.882 225.956 866.647 222.344 869.564 216.232C871.231 212.898 872.064 208.106 872.064 201.855C872.064 189.075 867.515 179.803 858.416 174.038C849.317 168.273 836.295 165.391 819.347 165.391C799.761 165.391 785.87 170.669 777.674 181.227C773.09 187.061 770.104 195.743 768.715 207.272L733.709 207.272C734.404 179.768 743.329 160.633 760.484 149.867C777.64 139.102 797.538 133.719 820.181 133.719C846.435 133.719 867.758 138.72 884.149 148.721C900.402 158.723 908.528 174.281 908.528 195.395L908.528 323.957C908.528 327.847 909.327 330.972 910.924 333.334C912.522 335.695 915.89 336.876 921.03 336.876C922.697 336.876 924.572 336.772 926.656 336.563C928.74 336.355 930.962 336.042 933.324 335.626L933.324 363.338C927.489 365.005 923.044 366.047 919.988 366.464C916.932 366.881 912.765 367.089 907.486 367.089C894.568 367.089 885.191 362.505 879.357 353.337C876.301 348.475 874.148 341.599 872.897 332.709C865.257 342.71 854.283 351.392 839.976 358.754C825.668 366.117 809.902 369.798 792.677 369.798C771.979 369.798 755.067 363.512 741.939 350.941C728.812 338.369 722.249 322.638 722.249 303.746C722.249 283.048 728.708 267.004 741.627 255.613C754.546 244.223 771.493 237.208 792.468 234.568L852.269 227.067Z"/>
<path d="M971.038 139.137L1006.67 139.137L1006.67 177.684C1009.59 170.183 1016.74 161.05 1028.13 150.284C1039.52 139.519 1052.65 134.136 1067.51 134.136C1068.21 134.136 1069.39 134.205 1071.05 134.344C1072.72 134.483 1075.57 134.761 1079.6 135.178L1079.6 174.767C1077.37 174.35 1075.32 174.073 1073.45 173.934C1071.57 173.795 1069.53 173.725 1067.3 173.725C1048.41 173.725 1033.89 179.803 1023.75 191.957C1013.61 204.112 1008.54 218.107 1008.54 233.943L1008.54 362.297L971.038 362.297L971.038 139.137Z"/>
<path d="M1198.16 132.677C1223.3 132.677 1243.75 138.789 1259.52 151.013C1275.29 163.238 1284.77 184.283 1287.96 214.148L1251.5 214.148C1249.28 200.396 1244.21 188.971 1236.29 179.872C1228.37 170.774 1215.66 166.224 1198.16 166.224C1174.26 166.224 1157.18 177.893 1146.9 201.23C1140.23 216.371 1136.9 235.054 1136.9 257.28C1136.9 279.645 1141.62 298.467 1151.07 313.747C1160.51 329.027 1175.38 336.668 1195.66 336.668C1211.21 336.668 1223.54 331.91 1232.64 322.394C1241.74 312.879 1248.03 299.856 1251.5 283.326L1287.96 283.326C1283.8 312.914 1273.38 334.549 1256.71 348.232C1240.04 361.915 1218.72 368.756 1192.74 368.756C1163.57 368.756 1140.3 358.094 1122.94 336.772C1105.57 315.449 1096.89 288.813 1096.89 256.863C1096.89 217.691 1106.41 187.2 1125.44 165.391C1144.47 143.582 1168.71 132.677 1198.16 132.677Z"/>
<path d="M1325.47 55.1652L1362.97 55.1652L1362.97 169.35C1371.86 158.098 1379.85 150.18 1386.94 145.596C1399.02 137.678 1414.09 133.719 1432.15 133.719C1464.52 133.719 1486.47 145.04 1498 167.683C1504.25 180.046 1507.37 197.201 1507.37 219.149L1507.37 362.297L1468.82 362.297L1468.82 221.65C1468.82 205.258 1466.74 193.242 1462.57 185.602C1455.77 173.378 1442.99 167.266 1424.23 167.266C1408.68 167.266 1394.58 172.614 1381.94 183.31C1369.29 194.006 1362.97 214.218 1362.97 243.945L1362.97 362.297L1325.47 362.297L1325.47 55.1652Z"/>
</g>
<path d="M32.0837 50.9789L32.0837 362.297L71.2297 362.297L71.2297 276.638L153.001 362.297L208.356 362.297L71.2297 218.621L71.2297 116.833L293.724 362.297L329.274 362.297L329.274 50.9789L290.157 50.9789L290.157 136.638L208.385 50.9789L153.03 50.9789L290.157 194.655L290.157 296.473L67.663 50.9789L32.0837 50.9789Z" fill="#18243b" fill-rule="nonzero" opacity="1" stroke="none" vectornator:layerName="Kurve 11"/>
</g>
</svg>
